<svg xmlns="http://www.w3.org/2000/svg" version="1.1" viewBox="0 0 32 40" x="0px" y="0px"><title>add-user</title><path d="M15.999 1.612c-4.063 0-7.357 3.294-7.357 7.357 0 2.411 1.162 4.548 2.956 5.892l0.941 0.704-1.116 0.366c-1.708 0.562-3.312 1.439-4.713 2.592-2.572 2.115-4.361 5.069-5.035 8.309-0.183 0.882 0.033 1.777 0.599 2.472 0.563 0.692 1.389 1.085 2.281 1.085h14.432c0.317 0 0.561-0.244 0.561-0.561s-0.242-0.558-0.559-0.559h-14.432c-0.729 0-1.208-0.422-1.412-0.673-0.348-0.428-0.487-0.993-0.375-1.535v-0.002c1.274-6.121 6.671-10.59 12.904-10.741h0.037c0.096 0.003 0.192 0.006 0.289 0.006 0.099 0 0.195-0.002 0.29-0.006h0.037c1.907 0.044 3.751 0.482 5.467 1.298 0.286 0.136 0.609 0.021 0.744-0.265s0.021-0.609-0.265-0.744c-0.555-0.263-1.118-0.491-1.691-0.68l-1.112-0.368 0.936-0.702c1.791-1.344 2.95-3.48 2.95-5.888 0-4.062-3.296-7.357-7.358-7.357zM16.001 2.732c3.434 0 6.237 2.803 6.237 6.237 0 3.328-2.629 6.062-5.919 6.228l-0.022 0.002h-0.022c-0.095-0.002-0.186-0.004-0.274-0.004s-0.176 0.002-0.27 0.004h-0.022l-0.022-0.002c-3.291-0.164-5.923-2.9-5.923-6.228 0-3.434 2.803-6.237 6.237-6.237zM25.434 20.48c-0.318 0-0.559 0.241-0.559 0.559v3.835h-3.835c-0.317 0-0.561 0.244-0.561 0.561s0.243 0.559 0.561 0.559h3.835v3.835c0 0.318 0.242 0.561 0.559 0.561s0.561-0.244 0.561-0.561v-3.835h3.835c0.318 0 0.559-0.241 0.559-0.559s-0.242-0.561-0.559-0.561h-3.835v-3.835c0-0.317-0.243-0.559-0.561-0.559z"/><text x="0" y="47" fill="#000000" font-size="5px" font-weight="bold" font-family="'Helvetica Neue', Helvetica, Arial-Unicode, Arial, Sans-serif"></text><text x="0" y="52" fill="#000000" font-size="5px" font-weight="bold" font-family="'Helvetica Neue', Helvetica, Arial-Unicode, Arial, Sans-serif"></text></svg>