<svg width="1389" height="950" viewBox="0 0 1389 950" fill="none" xmlns="http://www.w3.org/2000/svg">
<path d="M1133.11 744.706L1142.34 752.899L1150.16 749.83L1140.93 741.637L1146.14 739.59L1155.37 747.784L1163.19 744.714L1153.96 736.521L1159.17 734.475L1168.41 742.668L1176.23 739.599L1166.99 731.406L1174.81 728.337C1176.25 727.774 1177.67 727.794 1179.09 728.396C1180.5 728.999 1181.48 730.003 1182.03 731.41L1194.09 762.128C1194.65 763.536 1194.61 764.942 1193.98 766.346C1193.36 767.75 1192.33 768.732 1190.89 769.294L1149.19 785.664C1147.75 786.226 1146.33 786.207 1144.92 785.605C1143.5 785.004 1142.52 783.999 1141.96 782.59L1129.91 751.872C1129.35 750.464 1129.39 749.058 1130.02 747.656C1130.65 746.253 1131.68 745.27 1133.11 744.706ZM1139.14 760.065L1147.18 780.544L1188.88 764.174L1180.84 743.696L1139.14 760.065Z" fill="#CCCCCC"/>
<path d="M14.2128 835.144L23.4448 843.338L31.264 840.268L22.032 832.075L27.2448 830.029L36.4768 838.222L44.296 835.153L35.0639 826.96L40.2767 824.913L49.5088 833.107L57.328 830.037L48.0959 821.844L55.9151 818.775C57.3486 818.212 58.7732 818.232 60.1888 818.835C61.6044 819.437 62.5873 820.442 63.1375 821.848L75.1953 852.567C75.748 853.975 75.7113 855.38 75.0852 856.784C74.4591 858.188 73.4281 859.171 71.9922 859.733L30.2899 876.102C28.8563 876.665 27.433 876.645 26.0198 876.044C24.6066 875.443 23.6225 874.437 23.0674 873.028L11.0096 842.31C10.457 840.902 10.4949 839.497 11.1234 838.094C11.7519 836.691 12.7817 835.708 14.2128 835.144ZM20.2417 850.503L28.2802 870.982L69.9825 854.613L61.944 834.134L20.2417 850.503Z" fill="#CCCCCC"/>
<path d="M1344.9 496.402L1344.17 508.724L1351.42 512.972L1352.15 500.65L1356.98 503.482L1356.25 515.804L1363.5 520.052L1364.23 507.73L1369.06 510.562L1368.33 522.884L1375.57 527.132L1376.31 514.811L1383.55 519.059C1384.88 519.838 1385.75 520.969 1386.15 522.455C1386.55 523.94 1386.37 525.333 1385.6 526.636L1368.91 555.104C1368.15 556.409 1367.02 557.25 1365.53 557.625C1364.04 558.001 1362.63 557.799 1361.3 557.017L1322.65 534.361C1321.32 533.582 1320.46 532.451 1320.06 530.969C1319.66 529.486 1319.84 528.091 1320.6 526.784L1337.29 498.315C1338.06 497.01 1339.18 496.171 1340.68 495.798C1342.17 495.424 1343.58 495.626 1344.9 496.402ZM1336.56 510.637L1325.43 529.616L1364.08 552.272L1375.21 533.293L1336.56 510.637Z" fill="#CCCCCC"/>
<path d="M280.083 465.832L279.351 478.154L286.598 482.402L287.33 470.08L292.161 472.912L291.429 485.234L298.676 489.482L299.408 477.16L304.239 479.992L303.507 492.314L310.753 496.562L311.485 484.241L318.732 488.489C320.06 489.268 320.926 490.399 321.327 491.885C321.729 493.37 321.547 494.763 320.781 496.066L304.092 524.534C303.328 525.839 302.2 526.68 300.709 527.055C299.219 527.431 297.809 527.229 296.48 526.447L257.831 503.791C256.503 503.012 255.638 501.881 255.237 500.399C254.836 498.916 255.017 497.521 255.782 496.214L272.471 467.745C273.236 466.44 274.364 465.601 275.855 465.228C277.346 464.854 278.755 465.056 280.083 465.832ZM271.739 480.067L260.613 499.046L299.261 521.702L310.387 502.723L271.739 480.067Z" fill="#CCCCCC"/>
<path d="M1165.17 222.248L1175.28 229.325L1182.7 225.378L1172.58 218.3L1177.53 215.668L1187.64 222.746L1195.05 218.798L1184.94 211.721L1189.89 209.089L1200 216.166L1207.41 212.219L1197.3 205.141L1204.71 201.193C1206.07 200.47 1207.49 200.326 1208.97 200.761C1210.44 201.197 1211.53 202.082 1212.24 203.416L1227.75 232.545C1228.46 233.88 1228.59 235.281 1228.13 236.747C1227.67 238.214 1226.75 239.309 1225.39 240.032L1185.85 261.086C1184.49 261.81 1183.07 261.954 1181.6 261.519C1180.13 261.084 1179.03 260.199 1178.32 258.863L1162.81 229.734C1162.1 228.399 1161.98 226.999 1162.44 225.533C1162.9 224.067 1163.81 222.972 1165.17 222.248ZM1172.92 236.812L1183.26 256.231L1222.81 235.177L1212.47 215.758L1172.92 236.812Z" fill="#CCCCCC"/>
<path d="M123.943 56.6861L134.056 63.7639L141.47 59.8162L131.358 52.7384L136.301 50.1066L146.413 57.1844L153.828 53.2367L143.715 46.159L148.658 43.5272L158.771 50.6049L166.185 46.6572L156.073 39.5795L163.487 35.6318C164.847 34.908 166.264 34.764 167.74 35.1997C169.215 35.6354 170.307 36.5204 171.015 37.8548L186.524 66.9834C187.235 68.3185 187.36 69.7192 186.899 71.1857C186.439 72.6522 185.528 73.747 184.166 74.47L144.621 95.5243C143.262 96.2481 141.846 96.3924 140.373 95.9575C138.9 95.5225 137.807 94.6371 137.094 93.3013L121.585 64.1727C120.874 62.8376 120.75 61.4372 121.213 59.9715C121.676 58.5057 122.586 57.4106 123.943 56.6861ZM131.697 71.2505L142.037 90.6695L181.581 69.6152L171.242 50.1961L131.697 71.2505Z" fill="#CCCCCC"/>
<path d="M1103.53 63L1111.2 93.2939C1111.77 95.5435 1111.42 97.9297 1110.21 99.9275C1109.01 101.925 1107.05 103.371 1104.78 103.947C1102.51 104.522 1100.1 104.181 1098.09 102.997C1096.08 101.813 1094.63 99.8844 1094.06 97.6348C1093.49 95.3851 1093.85 92.999 1095.05 91.0012C1096.26 89.0034 1098.21 87.5577 1100.48 86.982C1101.81 86.6472 1103.13 86.6217 1104.37 86.8758L1100.76 72.6498L1077.58 84.0132L1083.04 105.582C1083.61 107.832 1083.25 110.218 1082.05 112.216C1080.84 114.214 1078.89 115.66 1076.62 116.235C1074.34 116.811 1071.94 116.469 1069.93 115.286C1067.92 114.102 1066.47 112.173 1065.9 109.923C1065.33 107.674 1065.69 105.288 1066.89 103.29C1068.09 101.292 1070.05 99.8462 1072.32 99.2706C1073.64 98.9357 1074.97 98.9103 1076.2 99.1644L1071.09 78.9523L1103.53 63Z" fill="#CCCCCC"/>
<path d="M308.711 886.425L325.836 912.565C327.108 914.506 327.548 916.878 327.06 919.16C326.573 921.441 325.196 923.444 323.235 924.73C321.273 926.015 318.887 926.476 316.601 926.012C314.314 925.548 312.315 924.197 311.044 922.256C309.772 920.315 309.332 917.943 309.819 915.661C310.307 913.38 311.683 911.376 313.645 910.091C314.786 909.344 316.028 908.889 317.28 908.726L309.238 896.45L291.025 914.749L303.218 933.361C304.489 935.302 304.93 937.674 304.442 939.955C303.954 942.237 302.578 944.24 300.617 945.525C298.655 946.81 296.269 947.272 293.982 946.808C291.696 946.344 289.697 944.993 288.425 943.052C287.154 941.11 286.713 938.738 287.201 936.457C287.689 934.176 289.065 932.172 291.026 930.887C292.168 930.139 293.41 929.684 294.662 929.521L283.236 912.081L308.711 886.425Z" fill="#CCCCCC"/>
<path d="M1340.63 379.699L1323.9 406.093C1322.66 408.053 1320.68 409.434 1318.4 409.932C1316.12 410.43 1313.73 410.005 1311.75 408.749C1309.77 407.493 1308.36 405.511 1307.84 403.237C1307.32 400.963 1307.72 398.585 1308.97 396.625C1310.21 394.665 1312.19 393.284 1314.47 392.786C1316.75 392.287 1319.14 392.713 1321.12 393.969C1322.27 394.699 1323.2 395.642 1323.86 396.715L1331.72 384.321L1307.53 375.292L1295.62 394.085C1294.38 396.045 1292.4 397.426 1290.12 397.924C1287.84 398.422 1285.45 397.997 1283.47 396.741C1281.49 395.486 1280.08 393.503 1279.56 391.229C1279.04 388.955 1279.44 386.577 1280.68 384.617C1281.93 382.657 1283.91 381.276 1286.18 380.778C1288.46 380.28 1290.86 380.705 1292.84 381.961C1293.99 382.691 1294.92 383.634 1295.58 384.707L1306.75 367.097L1340.63 379.699Z" fill="#CCCCCC"/>
<path d="M184.286 631.619L167.149 657.751C165.876 659.692 163.876 661.042 161.59 661.505C159.303 661.968 156.917 661.506 154.956 660.22C152.995 658.934 151.62 656.929 151.133 654.648C150.647 652.366 151.088 649.994 152.361 648.054C153.633 646.113 155.633 644.763 157.919 644.3C160.206 643.837 162.592 644.3 164.553 645.586C165.694 646.334 166.607 647.291 167.256 648.374L175.303 636.103L151.257 626.702L139.056 645.308C137.783 647.248 135.784 648.599 133.497 649.062C131.211 649.524 128.824 649.062 126.863 647.776C124.902 646.49 123.527 644.486 123.04 642.204C122.554 639.923 122.995 637.551 124.268 635.61C125.54 633.67 127.54 632.319 129.826 631.856C132.113 631.394 134.499 631.856 136.46 633.142C137.601 633.89 138.514 634.848 139.163 635.931L150.597 618.496L184.286 631.619Z" fill="#CCCCCC"/>
<path d="M1335.49 855.333L1316.4 880.069C1314.98 881.906 1312.88 883.098 1310.57 883.384C1308.25 883.669 1305.91 883.025 1304.05 881.591C1302.19 880.158 1300.98 878.054 1300.67 875.742C1300.36 873.43 1300.98 871.099 1302.4 869.262C1303.82 867.425 1305.91 866.233 1308.23 865.947C1310.55 865.662 1312.89 866.306 1314.75 867.739C1315.83 868.573 1316.66 869.598 1317.23 870.728L1326.19 859.112L1302.94 847.889L1289.35 865.501C1287.93 867.338 1285.83 868.53 1283.51 868.816C1281.2 869.101 1278.86 868.456 1277 867.023C1275.14 865.59 1273.93 863.486 1273.62 861.174C1273.31 858.862 1273.93 856.531 1275.35 854.694C1276.77 852.857 1278.86 851.665 1281.18 851.379C1283.49 851.093 1285.84 851.738 1287.69 853.171C1288.77 854.005 1289.61 855.03 1290.17 856.16L1302.91 839.656L1335.49 855.333Z" fill="#CCCCCC"/>
<path d="M65.3704 184.228L41.1668 203.996C39.3695 205.464 37.0564 206.15 34.7366 205.904C32.4167 205.657 30.2801 204.498 28.7967 202.682C27.3133 200.866 26.6047 198.541 26.8267 196.219C27.0487 193.896 28.1832 191.767 29.9805 190.299C31.7779 188.831 34.0909 188.145 36.4108 188.391C38.7306 188.637 40.8673 189.796 42.3507 191.612C43.2136 192.669 43.7963 193.857 44.0894 195.085L55.4554 185.802L35.3507 169.604L18.1178 183.678C16.3204 185.146 14.0074 185.833 11.6875 185.586C9.36766 185.34 7.23102 184.181 5.74763 182.365C4.26423 180.549 3.55559 178.224 3.77761 175.901C3.99962 173.579 5.1341 171.45 6.93147 169.982C8.72884 168.514 11.0419 167.828 13.3617 168.074C15.6816 168.32 17.8182 169.479 19.3016 171.295C20.1645 172.352 20.7472 173.539 21.0403 174.768L37.1889 161.579L65.3704 184.228Z" fill="#CCCCCC"/>
<path d="M824.243 908.434L845.283 931.54C846.846 933.256 847.655 935.528 847.534 937.858C847.413 940.188 846.371 942.384 844.637 943.963C842.903 945.542 840.619 946.374 838.288 946.277C835.958 946.181 833.77 945.162 832.208 943.446C830.645 941.731 829.836 939.458 829.957 937.128C830.078 934.798 831.12 932.603 832.854 931.024C833.863 930.105 835.017 929.459 836.228 929.101L826.348 918.25L811.254 939.197L826.235 955.648C827.797 957.364 828.607 959.637 828.486 961.966C828.365 964.296 827.323 966.492 825.589 968.071C823.855 969.65 821.571 970.483 819.24 970.386C816.909 970.289 814.722 969.271 813.16 967.555C811.597 965.839 810.787 963.566 810.909 961.236C811.03 958.907 812.072 956.711 813.806 955.132C814.815 954.213 815.969 953.568 817.18 953.209L803.142 937.793L824.243 908.434Z" fill="#CCCCCC"/>
<path d="M481.211 5.64129L454.827 -11.1062C452.868 -12.3498 451.488 -14.3291 450.992 -16.6085C450.495 -18.8879 450.922 -21.2807 452.179 -23.2606C453.435 -25.2404 455.419 -26.6452 457.693 -27.1657C459.967 -27.6863 462.345 -27.2801 464.305 -26.0364C466.264 -24.7927 467.644 -22.8135 468.14 -20.5341C468.637 -18.2547 468.21 -15.8619 466.953 -13.882C466.222 -12.7302 465.278 -11.8032 464.205 -11.1382L476.594 -3.27359L485.638 -27.4563L466.853 -39.3805C464.893 -40.6241 463.514 -42.6034 463.017 -44.8828C462.52 -47.1622 462.947 -49.555 464.204 -51.5349C465.461 -53.5147 467.444 -54.9195 469.718 -55.44C471.993 -55.9606 474.371 -55.5544 476.33 -54.3107C478.289 -53.067 479.669 -51.0878 480.166 -48.8084C480.662 -46.529 480.236 -44.1362 478.979 -42.1563C478.248 -41.0045 477.304 -40.0775 476.23 -39.4125L493.833 -28.2386L481.211 5.64129Z" fill="#CCCCCC"/>
<path d="M1052.21 366.394L1043.69 419.833L1073.43 441.423L1081.95 387.985L1101.78 402.379L1093.26 455.817L1123 477.408L1131.52 423.97L1151.34 438.363L1142.82 491.802L1172.56 513.393L1181.08 459.954L1210.82 481.545C1216.27 485.503 1219.55 490.806 1220.66 497.454C1221.77 504.102 1220.37 510.104 1216.47 515.461L1131.43 632.596C1127.53 637.965 1122.26 641.154 1115.6 642.164C1108.94 643.174 1102.89 641.694 1097.43 637.724L938.826 522.573C933.374 518.615 930.095 513.318 928.989 506.681C927.883 500.045 929.278 494.037 933.174 488.657L1018.22 371.522C1022.11 366.154 1027.39 362.97 1034.05 361.971C1040.71 360.973 1046.76 362.447 1052.21 366.394ZM1009.69 424.961L952.999 503.051L1111.61 618.202L1168.3 540.112L1009.69 424.961Z" fill="#CCCCCC"/>
<path d="M374.062 92L411.53 305.582C414.312 321.443 410.614 337.771 401.248 350.974C391.882 364.177 377.616 373.174 361.588 375.986C345.561 378.798 329.084 375.194 315.783 365.967C302.483 356.74 293.447 342.645 290.665 326.785C287.882 310.924 291.581 294.596 300.947 281.393C310.313 268.189 324.579 259.192 340.606 256.38C349.93 254.745 359.096 255.25 367.525 257.646L349.93 157.348L183.65 224.033L210.328 376.103C213.11 391.964 209.412 408.292 200.046 421.495C190.68 434.698 176.414 443.696 160.386 446.507C144.359 449.319 127.882 445.715 114.581 436.488C101.281 427.261 92.2454 413.167 89.463 397.306C86.6806 381.445 90.3791 365.117 99.7449 351.914C109.111 338.71 123.377 329.713 139.404 326.901C148.728 325.266 157.894 325.771 166.323 328.167L141.324 185.666L374.062 92Z" fill="#CCCCCC"/>
</svg>
