<svg width="270" height="84" viewBox="0 0 270 84" fill="none" xmlns="http://www.w3.org/2000/svg">
<path d="M201.8 23L206.6 32.75H213.8L209 23H213.8L218.6 32.75H225.8L221 23H225.8L230.6 32.75H237.8L233 23H240.2C241.52 23 242.65 23.4777 243.591 24.4332C244.532 25.3887 245.002 26.536 245 27.875V57.125C245 58.4656 244.53 59.6137 243.591 60.5692C242.652 61.5247 241.522 62.0016 240.2 62H201.8C200.48 62 199.35 61.5231 198.411 60.5692C197.472 59.6153 197.002 58.4672 197 57.125V27.875C197 26.5344 197.47 25.3871 198.411 24.4332C199.352 23.4794 200.482 23.0016 201.8 23ZM201.8 37.625V57.125H240.2V37.625H201.8Z" fill="black"/>
<path d="M36.824 53.384C35.1813 53.384 33.7307 53.1067 32.472 52.552C31.2133 51.976 30.2213 51.1653 29.496 50.12C28.7707 49.0533 28.3973 47.7627 28.376 46.248H32.696C32.7387 47.2933 33.112 48.1787 33.816 48.904C34.5413 49.608 35.5333 49.96 36.792 49.96C37.88 49.96 38.744 49.704 39.384 49.192C40.024 48.6587 40.344 47.9547 40.344 47.08C40.344 46.1627 40.056 45.448 39.48 44.936C38.9253 44.424 38.1787 44.008 37.24 43.688C36.3013 43.368 35.2987 43.0267 34.232 42.664C32.504 42.0667 31.1813 41.2987 30.264 40.36C29.368 39.4213 28.92 38.1733 28.92 36.616C28.8987 35.2933 29.208 34.1627 29.848 33.224C30.5093 32.264 31.4053 31.528 32.536 31.016C33.6667 30.4827 34.968 30.216 36.44 30.216C37.9333 30.216 39.2453 30.4827 40.376 31.016C41.528 31.5493 42.424 32.296 43.064 33.256C43.7253 34.216 44.0773 35.3573 44.12 36.68H39.736C39.7147 35.8907 39.4053 35.1973 38.808 34.6C38.232 33.9813 37.4213 33.672 36.376 33.672C35.48 33.6507 34.7227 33.8747 34.104 34.344C33.5067 34.792 33.208 35.4533 33.208 36.328C33.208 37.0747 33.4427 37.672 33.912 38.12C34.3813 38.5467 35.0213 38.9093 35.832 39.208C36.6427 39.5067 37.5707 39.8267 38.616 40.168C39.7253 40.552 40.7387 41 41.656 41.512C42.5733 42.024 43.3093 42.7067 43.864 43.56C44.4187 44.392 44.696 45.4693 44.696 46.792C44.696 47.9653 44.3973 49.0533 43.8 50.056C43.2027 51.0587 42.3173 51.8693 41.144 52.488C39.9707 53.0853 38.5307 53.384 36.824 53.384ZM53.6458 53.384C52.2804 53.384 51.1604 53.1707 50.2858 52.744C49.4111 52.296 48.7604 51.7093 48.3338 50.984C47.9071 50.2587 47.6938 49.4587 47.6938 48.584C47.6938 47.112 48.2698 45.9173 49.4218 45C50.5738 44.0827 52.3018 43.624 54.6058 43.624H58.6378V43.24C58.6378 42.152 58.3284 41.352 57.7098 40.84C57.0911 40.328 56.3231 40.072 55.4058 40.072C54.5738 40.072 53.8484 40.2747 53.2298 40.68C52.6111 41.064 52.2271 41.64 52.0778 42.408H48.0778C48.1844 41.256 48.5684 40.2533 49.2298 39.4C49.9124 38.5467 50.7871 37.896 51.8538 37.448C52.9204 36.9787 54.1151 36.744 55.4378 36.744C57.6991 36.744 59.4804 37.3093 60.7818 38.44C62.0831 39.5707 62.7338 41.1707 62.7338 43.24V53H59.2458L58.8618 50.44C58.3924 51.2933 57.7311 51.9973 56.8778 52.552C56.0458 53.1067 54.9684 53.384 53.6458 53.384ZM54.5738 50.184C55.7471 50.184 56.6538 49.8 57.2938 49.032C57.9551 48.264 58.3711 47.3147 58.5418 46.184H55.0538C53.9658 46.184 53.1871 46.3867 52.7178 46.792C52.2484 47.176 52.0138 47.656 52.0138 48.232C52.0138 48.8507 52.2484 49.3307 52.7178 49.672C53.1871 50.0133 53.8058 50.184 54.5738 50.184ZM66.6425 53V37.128H70.2585L70.6105 39.272C71.1225 38.504 71.7945 37.896 72.6265 37.448C73.4798 36.9787 74.4612 36.744 75.5705 36.744C78.0238 36.744 79.7625 37.6933 80.7865 39.592C81.3625 38.7173 82.1305 38.024 83.0905 37.512C84.0718 37 85.1385 36.744 86.2905 36.744C88.3598 36.744 89.9492 37.3627 91.0585 38.6C92.1678 39.8373 92.7225 41.6507 92.7225 44.04V53H88.6265V44.424C88.6265 43.0587 88.3598 42.0133 87.8265 41.288C87.3145 40.5627 86.5145 40.2 85.4265 40.2C84.3172 40.2 83.4212 40.6053 82.7385 41.416C82.0772 42.2267 81.7465 43.3573 81.7465 44.808V53H77.6505V44.424C77.6505 43.0587 77.3838 42.0133 76.8505 41.288C76.3172 40.5627 75.4958 40.2 74.3865 40.2C73.2985 40.2 72.4132 40.6053 71.7305 41.416C71.0692 42.2267 70.7385 43.3573 70.7385 44.808V53H66.6425ZM104.323 53.384C102.723 53.384 101.305 53.0427 100.067 52.36C98.8299 51.6773 97.8593 50.7173 97.1553 49.48C96.4513 48.2427 96.0993 46.8133 96.0993 45.192C96.0993 43.5493 96.4406 42.088 97.1233 40.808C97.8273 39.528 98.7873 38.536 100.003 37.832C101.241 37.1067 102.691 36.744 104.355 36.744C105.913 36.744 107.289 37.0853 108.483 37.768C109.678 38.4507 110.606 39.3893 111.267 40.584C111.95 41.7573 112.291 43.0693 112.291 44.52C112.291 44.7547 112.281 45 112.259 45.256C112.259 45.512 112.249 45.7787 112.227 46.056H100.163C100.249 47.2933 100.675 48.264 101.443 48.968C102.233 49.672 103.182 50.024 104.291 50.024C105.123 50.024 105.817 49.8427 106.371 49.48C106.947 49.096 107.374 48.6053 107.651 48.008H111.811C111.513 49.0107 111.011 49.928 110.307 50.76C109.625 51.5707 108.771 52.2107 107.747 52.68C106.745 53.1493 105.603 53.384 104.323 53.384ZM104.355 40.072C103.353 40.072 102.467 40.36 101.699 40.936C100.931 41.4907 100.441 42.344 100.227 43.496H108.131C108.067 42.4507 107.683 41.6187 106.979 41C106.275 40.3813 105.401 40.072 104.355 40.072ZM122.328 53L114.136 30.6H118.52L124.856 48.808L131.224 30.6H135.544L127.352 53H122.328ZM140.319 34.664C139.573 34.664 138.954 34.44 138.463 33.992C137.994 33.544 137.759 32.9787 137.759 32.296C137.759 31.6133 137.994 31.0587 138.463 30.632C138.954 30.184 139.573 29.96 140.319 29.96C141.066 29.96 141.674 30.184 142.143 30.632C142.634 31.0587 142.879 31.6133 142.879 32.296C142.879 32.9787 142.634 33.544 142.143 33.992C141.674 34.44 141.066 34.664 140.319 34.664ZM138.271 53V37.128H142.367V53H138.271ZM154.355 53.384C152.755 53.384 151.336 53.0427 150.099 52.36C148.861 51.6773 147.891 50.7173 147.187 49.48C146.483 48.2427 146.131 46.8133 146.131 45.192C146.131 43.5493 146.472 42.088 147.155 40.808C147.859 39.528 148.819 38.536 150.035 37.832C151.272 37.1067 152.723 36.744 154.387 36.744C155.944 36.744 157.32 37.0853 158.515 37.768C159.709 38.4507 160.637 39.3893 161.299 40.584C161.981 41.7573 162.323 43.0693 162.323 44.52C162.323 44.7547 162.312 45 162.291 45.256C162.291 45.512 162.28 45.7787 162.259 46.056H150.195C150.28 47.2933 150.707 48.264 151.475 48.968C152.264 49.672 153.213 50.024 154.323 50.024C155.155 50.024 155.848 49.8427 156.403 49.48C156.979 49.096 157.405 48.6053 157.683 48.008H161.843C161.544 49.0107 161.043 49.928 160.339 50.76C159.656 51.5707 158.803 52.2107 157.779 52.68C156.776 53.1493 155.635 53.384 154.355 53.384ZM154.387 40.072C153.384 40.072 152.499 40.36 151.731 40.936C150.963 41.4907 150.472 42.344 150.259 43.496H158.163C158.099 42.4507 157.715 41.6187 157.011 41C156.307 40.3813 155.432 40.072 154.387 40.072ZM168.247 53L163.607 37.128H167.671L170.423 48.552L173.623 37.128H178.167L181.367 48.552L184.151 37.128H188.215L183.543 53H179.287L175.895 41.128L172.503 53H168.247Z" fill="black"/>
</svg>
